<?xml version="1.0" encoding="iso-8859-1"?>
<!-- Generator: Adobe Illustrator 19.0.0, SVG Export Plug-In . SVG Version: 6.00 Build 0)  -->
<svg version="1.1" id="Capa_1" xmlns="http://www.w3.org/2000/svg" xmlns:xlink="http://www.w3.org/1999/xlink" x="0px" y="0px"
	 viewBox="0 0 512 512" style="enable-background:new 0 0 512 512;" xml:space="preserve">
<path style="fill:#383838;" d="M293.828,143.08c-6.949-2.476-21.104-6.63-37.828-6.63s-30.879,4.153-37.828,6.63
	c-13.217,4.71-20.72,10.174-22.297,16.244c-0.168,0.65-0.255,1.319-0.255,1.991v42.529c0,4.371,3.544,7.914,7.914,7.914h104.932
	c4.37,0,7.914-3.543,7.914-7.914v-42.529c0-0.671-0.086-1.341-0.255-1.991C314.548,153.255,307.046,147.79,293.828,143.08z"/>
<path style="fill:#FFA17A;" d="M249.337,132.379h13.327c14.649,0,26.567-11.917,26.567-26.567v-21.88
	c0-14.649-11.917-26.567-26.567-26.567h-13.327c-14.649,0-26.566,11.917-26.566,26.567v21.879
	C222.77,120.461,234.687,132.379,249.337,132.379z"/>
<path style="fill:#7C8388;" d="M256,136.451c-16.724,0-30.879,4.153-37.828,6.63c-13.217,4.71-20.72,10.174-22.297,16.244
	c-0.168,0.65-0.255,1.319-0.255,1.991v42.529c0,4.371,3.544,7.914,7.914,7.914H256V136.451z"/>
<path style="fill:#FFBFAB;" d="M249.337,132.379H256V57.366h-6.663c-14.649,0-26.566,11.917-26.566,26.567v21.879
	C222.77,120.461,234.687,132.379,249.337,132.379z"/>
<path style="fill:#D2D2EA;" d="M339.848,196.358H172.152c-8.504,0-15.398,6.894-15.398,15.398s6.894,15.398,15.398,15.398h167.695
	c8.504,0,15.398-6.894,15.398-15.398S348.352,196.358,339.848,196.358z"/>
<path style="fill:#F5F5FD;" d="M256,196.358h-83.848c-8.504,0-15.398,6.894-15.398,15.398s6.894,15.398,15.398,15.398H256V196.358z"
	/>
<path style="fill:#FF637B;" d="M118.93,401.196H88.027c-31.533,0-57.23-25.282-57.23-56.8v-98.906
	c0-8.504-6.894-15.398-15.398-15.398S0,236.986,0,245.491v98.906c0,48.499,39.513,87.597,88.027,87.597h30.903
	c8.504,0,15.398-6.894,15.398-15.398C134.328,408.09,127.434,401.196,118.93,401.196z"/>
<path style="fill:#FFBFAB;" d="M98.752,216.432h-8.213c-13.364,0-24.197-10.833-24.197-24.196v-17.752
	c0-13.364,10.833-24.196,24.197-24.196h8.213c13.364,0,24.196,10.833,24.196,24.196v17.752
	C122.948,205.598,112.114,216.432,98.752,216.432z"/>
<path style="fill:#7C8388;" d="M213.013,347.78c0-13.227-10.727-23.95-23.959-23.95h-58.499v-67.878
	c0-19.825-16.077-35.896-35.909-35.896l0,0c-19.832,0-35.909,16.071-35.909,35.896v79.881c0,19.825,16.077,35.896,35.909,35.896l0,0
	c0.15,0,0.297-0.009,0.446-0.011c0.149,0.003,0.297,0.011,0.447,0.011h69.558v58.955c0,13.227,10.727,23.95,23.959,23.95l0,0
	c13.232,0,23.959-10.723,23.959-23.95v-81.122c0-0.299-0.011-0.594-0.023-0.891C213.001,348.374,213.013,348.078,213.013,347.78
	L213.013,347.78z"/>
<path style="fill:#E63950;" d="M393.07,401.196h30.903c31.533,0,57.23-25.282,57.23-56.8v-98.906
	c0-8.504,6.894-15.398,15.398-15.398c8.504,0,15.398,6.894,15.398,15.398v98.906c0,48.499-39.513,87.597-88.027,87.597H393.07
	c-8.504,0-15.398-6.894-15.398-15.398C377.672,408.09,384.566,401.196,393.07,401.196z"/>
<path style="fill:#FFA17A;" d="M413.248,216.432h8.213c13.364,0,24.196-10.833,24.196-24.196v-17.752
	c0-13.364-10.833-24.196-24.196-24.196h-8.213c-13.364,0-24.197,10.833-24.197,24.196v17.752
	C389.052,205.598,399.886,216.432,413.248,216.432z"/>
<path style="fill:#383838;" d="M298.987,347.78c0-13.227,10.727-23.95,23.959-23.95h58.499v-67.878
	c0-19.825,16.077-35.896,35.909-35.896l0,0c19.832,0,35.909,16.071,35.909,35.896v79.881c0,19.825-16.077,35.896-35.909,35.896l0,0
	c-0.15,0-0.297-0.009-0.445-0.011c-0.149,0.003-0.297,0.011-0.447,0.011h-69.558v58.955c0,13.227-10.727,23.95-23.959,23.95l0,0
	c-13.232,0-23.959-10.723-23.959-23.95v-81.122c0-0.299,0.011-0.594,0.023-0.891C298.999,348.374,298.987,348.078,298.987,347.78
	L298.987,347.78z"/>
<g>
</g>
<g>
</g>
<g>
</g>
<g>
</g>
<g>
</g>
<g>
</g>
<g>
</g>
<g>
</g>
<g>
</g>
<g>
</g>
<g>
</g>
<g>
</g>
<g>
</g>
<g>
</g>
<g>
</g>
</svg>
